<?xml version="1.0" encoding="UTF-8" standalone="no"?>
<!-- Created with Inkscape (http://www.inkscape.org/) -->

<svg
   width="64"
   height="64"
   viewBox="0 0 16.933333 16.933334"
   version="1.1"
   id="svg5"
   xmlns="http://www.w3.org/2000/svg"
   xmlns:svg="http://www.w3.org/2000/svg">
  <defs
     id="defs2" />
  <g
     id="layer1"
     transform="rotate(-21.27478,8.4666668,8.4666667)">
    <g
       id="g8798"
       transform="translate(-93.410207,-133.66957)">
      <g
         id="g8712"
         transform="matrix(0.31174555,0,0,0.31174555,70.117212,97.825896)">
        <g
           id="g1688"
           transform="matrix(0.99280522,0,0,0.99280522,0.73054791,0.96073062)">
          <g
             id="g3618"
             transform="matrix(0.96443243,0,0,0.96443243,2.9957847,6.6700187)">
            <ellipse
               style="fill:#58411a;fill-opacity:1;stroke:none;stroke-width:1.6;stroke-linecap:round;stroke-linejoin:round;stroke-miterlimit:4;stroke-dasharray:none;stroke-opacity:1"
               id="path5119"
               cx="144.11023"
               cy="72.352829"
               rx="2.3089418"
               ry="1.9297614"
               transform="rotate(19.288121)" />
            <path
               style="fill:#c0d471;fill-opacity:1;stroke:#556b3a;stroke-width:2.12179;stroke-linecap:round;stroke-linejoin:round;stroke-miterlimit:4;stroke-dasharray:none;stroke-opacity:1"
               d="m 111.78768,116.03953 c -7.5223,-2.7443 -10.01108,2.20904 -12.608732,6.50264 -2.530471,4.21437 -4.446312,5.38141 -7.895517,8.09738 -5.641897,4.22917 -9.85036,11.29191 -10.705844,16.06909 -1.518473,8.00967 3.465346,15.9901 12.157894,19.30414 m 19.052509,-49.97314 c 7.43999,2.9602 5.99938,8.31318 5.07926,13.24634 -0.91752,4.82934 -0.2649,6.97562 0.50065,11.29851 1.39432,6.91179 -0.16741,14.98362 -2.70947,19.11778 -4.19934,6.98756 -13.2311,9.62442 -21.923602,6.31026"
               id="path2583" />
            <ellipse
               style="fill:#897337;fill-opacity:1;stroke:none;stroke-width:0.300719;stroke-linecap:round;stroke-linejoin:round"
               id="path4851"
               cx="142.85796"
               cy="108.45406"
               rx="9.6028776"
               ry="9.5337915"
               transform="rotate(19.288121)" />
          </g>
        </g>
      </g>
    </g>
  </g>
</svg>
