<?xml version="1.0" encoding="UTF-8" standalone="no"?>
<!-- Created with Inkscape (http://www.inkscape.org/) -->

<svg
   width="16.933334mm"
   height="16.933323mm"
   viewBox="0 0 16.933334 16.933323"
   version="1.1"
   id="svg5"
   xmlns="http://www.w3.org/2000/svg"
   xmlns:svg="http://www.w3.org/2000/svg">
  <defs
     id="defs2" />
  <g
     id="layer1"
     transform="translate(-77.740569,-95.075663)">
    <path
       style="fill:#edcc0a;fill-opacity:1;stroke-width:0.80954;stroke-linecap:round;stroke-linejoin:round"
       d="m 78.837394,107.81827 c 4.863356,0.14889 10.560826,-3.71725 11.906709,-9.490248 0.846546,-3.146771 3.617856,-0.0272 3.795458,1.338481 1.60707,8.646267 -11.645669,14.887347 -16.187167,11.319107 -0.19002,-0.14133 -0.23087,-0.18368 -0.316154,-0.32552 -0.259773,-0.43203 -0.451452,-2.16438 0.136859,-2.59527 0.195367,-0.14309 0.299936,-0.25394 0.664295,-0.24655 z"
       id="path857" />
    <path
       style="fill:#300f05;fill-opacity:1;stroke-width:0.80954;stroke-linecap:round;stroke-linejoin:round"
       d="m 79.255241,108.66709 c -0.06076,0.33388 -0.196994,1.14976 -0.227908,1.4685 -0.04128,0.42557 0.03764,0.96961 -0.08677,1.23259 -0.05629,-0.0365 -0.72508,-0.36185 -0.970108,-0.75259 -0.339134,-0.53656 -0.353187,-2.24138 0.301188,-2.69025 0.250451,-0.15475 0.731833,-0.10473 1.10314,-0.10702 -0.03978,0.28861 -0.07847,0.62307 -0.119542,0.84877 z"
       id="path2564" />
    <path
       style="fill:#22a205;fill-opacity:1;stroke-width:0.937269;stroke-linecap:round;stroke-linejoin:round"
       d="m 91.352233,97.227238 c -0.0638,-0.560078 -0.170106,-1.127707 -0.436943,-1.80582 -0.01757,-0.0527 0.01383,-0.07067 0.04457,-0.08697 0.19942,-0.09398 0.799714,-0.206062 1.09858,-0.249811 0.04779,-0.0063 0.116652,-0.0319 0.17301,0.0472 0.319081,0.795936 0.377659,1.500813 0.501197,2.072016 -0.497052,-0.04214 -0.926434,-0.01416 -1.380413,0.02338 z"
       id="path5717" />
  </g>
</svg>
