<?xml version="1.0" encoding="UTF-8" standalone="no"?>
<!-- Created with Inkscape (http://www.inkscape.org/) -->

<svg
   width="64"
   height="64"
   viewBox="0 0 16.933333 16.933334"
   version="1.1"
   id="svg3634"
   xmlns="http://www.w3.org/2000/svg"
   xmlns:svg="http://www.w3.org/2000/svg">
  <defs
     id="defs3631" />
  <g
     id="layer1">
    <g
       id="g974"
       transform="matrix(0.12178619,0,0,0.12178619,-4.3208832,-10.74674)">
      <path
         style="fill:#cadd78;fill-opacity:1;stroke-width:0.793999;stroke-linecap:round;stroke-linejoin:round"
         d="m 67.00868,170.82901 19.85068,24.76911 c 1.48458,2.59851 1.523561,2.85288 1.679666,5.35947 l 1.86e-4,25.59432 c 0.0044,0.375 0.378614,0.73226 0.709755,0.73226 l 27.171413,-1.7e-4 c 0.7347,0 0.80969,-0.15475 0.80969,-0.89606 l -7e-5,-24.76787 c 0.0566,-3.23589 0.21404,-4.10051 1.65081,-5.85129 L 140.42933,170.829 c -3.90592,-0.81894 -7.5117,-2.65292 -9.91809,0 l -21.40665,23.59976 c -0.74723,0.79713 -0.74,0.74296 -0.74001,-0.2956 l -2.5e-4,-23.30416 c -3e-5,-3.08161 -10.192663,0 -10.192663,0 l 0.09326,23.15215 c -0.01499,1.07232 -0.18988,1.1466 -0.793901,0.36623 L 79.338058,170.829 c -1.571632,-2.0384 -9.695562,-1.317 -12.329558,-1e-5 z"
         id="path4017" />
      <ellipse
         style="fill:#67a829;fill-opacity:1;stroke-width:0.833613;stroke-linecap:round;stroke-linejoin:round"
         id="path3717"
         cx="105"
         cy="120.58922"
         rx="35.654701"
         ry="32.346535" />
      <ellipse
         style="fill:#67a829;fill-opacity:1;stroke-width:0.540686;stroke-linecap:round;stroke-linejoin:round"
         id="path3717-0"
         cx="105"
         cy="158.42451"
         rx="23.157179"
         ry="20.951733" />
      <g
         id="g3927"
         transform="translate(-10.877789,-3.7041668)"
         style="fill:#67a829;fill-opacity:1">
        <circle
           style="fill:#67a829;fill-opacity:1;stroke-width:0.793999;stroke-linecap:round;stroke-linejoin:round"
           id="path3821"
           cx="82.887993"
           cy="148.5"
           r="30.324877" />
        <circle
           style="fill:#67a829;fill-opacity:1;stroke-width:0.793999;stroke-linecap:round;stroke-linejoin:round"
           id="path3821-3"
           cx="148.86758"
           cy="148.5"
           r="30.324877" />
      </g>
    </g>
  </g>
</svg>
