<?xml version="1.0" encoding="UTF-8" standalone="no"?>
<!-- Created with Inkscape (http://www.inkscape.org/) -->

<svg
   width="64"
   height="64"
   viewBox="0 0 16.933333 16.933334"
   version="1.1"
   id="svg5741"
   xmlns="http://www.w3.org/2000/svg"
   xmlns:svg="http://www.w3.org/2000/svg">
  <defs
     id="defs5738" />
  <g
     id="layer1"
     transform="matrix(0.15894083,0,0,0.15894083,-9.7096529,-9.9118314)">
    <path
       style="fill:none;fill-opacity:1;stroke:#199d37;stroke-width:3.90001;stroke-linecap:round;stroke-linejoin:round;stroke-opacity:1"
       d="m 89.136756,130.30507 c 3.864646,-7.73697 0.387477,-55.709803 -8.081766,-63.048104 28.41841,7.129271 50.62866,38.423724 53.01312,51.171414"
       id="path7379" />
    <path
       style="fill:#e51437;fill-opacity:1;stroke:none;stroke-width:3.90001;stroke-linecap:round;stroke-linejoin:round"
       d="m 89.136756,130.30507 c -5.632811,0 -8.750533,-3.77337 -13.932462,-1.47029 -7.273615,3.23272 -9.709368,15.0773 -7.180385,24.30425 3.73238,10.35801 10.427262,15.69456 21.112847,15.76134 m 0,-38.5953 c 5.632811,0 8.750533,-3.77337 13.932464,-1.47029 7.27361,3.23272 9.70937,15.0773 7.18038,24.30425 -3.73238,10.35801 -10.427259,15.69456 -21.112844,15.76134"
       id="path5868" />
    <path
       style="fill:#e51437;fill-opacity:1;stroke:none;stroke-width:3.90001;stroke-linecap:round;stroke-linejoin:round"
       d="m 89.136756,130.30507 c -5.632811,0 -8.750533,-3.77337 -13.932462,-1.47029 -7.273615,3.23272 -9.709368,15.0773 -7.180385,24.30425 3.73238,10.35801 10.427262,15.69456 21.112847,15.76134 m 0,-38.5953 c 5.632811,0 8.750533,-3.77337 13.932464,-1.47029 7.27361,3.23272 9.70937,15.0773 7.18038,24.30425 -3.73238,10.35801 -10.427259,15.69456 -21.112844,15.76134"
       id="path5868-7"
       transform="rotate(-19.77974,77.541709,-4.4903142)" />
    <path
       style="fill:none;fill-opacity:1;stroke:#199d37;stroke-width:5.5;stroke-linecap:round;stroke-linejoin:round;stroke-miterlimit:4;stroke-dasharray:none;stroke-opacity:1"
       d="m 78.647994,65.111768 4.574129,3.526193"
       id="path8477" />
  </g>
</svg>
