<?xml version="1.0" encoding="UTF-8" standalone="no"?>
<!-- Created with Inkscape (http://www.inkscape.org/) -->

<svg
   width="64"
   height="64"
   viewBox="0 0 16.933333 16.933334"
   version="1.1"
   id="svg5"
   xmlns="http://www.w3.org/2000/svg"
   xmlns:svg="http://www.w3.org/2000/svg">
  <defs
     id="defs2" />
  <g
     id="g1509"
     transform="matrix(0.9772064,0,0,0.9772064,0.09094686,0.3823527)">
    <g
       id="layer1">
      <g
         id="g6984"
         transform="matrix(0.21553415,0,0,0.21553415,-16.72541,-18.237455)">
        <path
           style="fill:#7529b1;fill-opacity:1;stroke:none;stroke-width:1.9;stroke-linecap:round;stroke-linejoin:round"
           d="m 127.10997,97.34411 c -25.11011,40.15037 -34.703017,21.69324 -45.188674,38.9737 -7.830978,12.90552 3.377141,27.0254 17.957955,26.84805 19.925679,0.96298 40.539849,-20.66753 50.414029,-44.99931 8.81599,-21.72421 -12.89727,-35.286614 -23.18331,-20.82244 z"
           id="path890" />
        <path
           style="opacity:1;fill:#4caf50;fill-opacity:1;stroke:none;stroke-width:2.05497;stroke-linecap:round;stroke-linejoin:round"
           d="m 144.47233,91.218505 c -5.77568,-4.159732 -19.62368,1.073692 -20.65436,7.348311 3.44055,2.323574 8.65364,3.358114 12.26952,1.715794 -0.74484,1.7887 -1.29136,6.38972 0.41461,9.37373 3.86711,0.37253 7.40997,-2.27482 9.42488,-5.69633 -0.003,3.75227 4.35548,7.95243 8.81503,8.26132 1.0671,-5.50278 1.84955,-13.552434 -6.642,-19.064747 2.38861,-4.026861 2.83528,-3.963618 5.26009,-6.368328 0.11293,-0.128855 0.14504,-0.203682 0.0832,-0.375006 -0.56108,-1.486131 -1.70454,-3.057651 -2.45405,-3.527787 -0.21599,-0.156079 -0.29822,-0.07745 -0.46835,0.06485 -3.92765,3.304719 -4.3327,4.958294 -6.04856,8.268197 z"
           id="path2430" />
      </g>
    </g>
  </g>
</svg>
