<?xml version="1.0" encoding="UTF-8" standalone="no"?>
<!-- Created with Inkscape (http://www.inkscape.org/) -->

<svg
   width="64"
   height="64"
   viewBox="0 0 16.933333 16.933334"
   version="1.1"
   id="svg5"
   xmlns="http://www.w3.org/2000/svg"
   xmlns:svg="http://www.w3.org/2000/svg">
  <defs
     id="defs2" />
  <g
     id="layer1">
    <g
       id="g12332"
       transform="matrix(0.2615716,0,0,0.2615716,-19.834334,-5.247925)">
      <path
         style="fill:none;fill-opacity:1;stroke:#956437;stroke-width:3.03454;stroke-linecap:round;stroke-linejoin:round;stroke-miterlimit:4;stroke-dasharray:none;stroke-opacity:1"
         d="m 117.57475,32.209686 c 0.76193,-3.049668 2.86668,-5.996315 3.86718,-9.480175"
         id="path8239" />
      <path
         style="fill:#f4c710;fill-opacity:1;stroke-width:5.80001;stroke-linejoin:round"
         d="m 116.41667,23.01875 c -2.29819,-0.419843 -2.63674,0.05745 -3.52181,0.938877 -0.16308,0.201056 -0.31481,0.407562 -0.51029,0.829939 -0.33772,0.588627 -0.79454,1.03454 -1.32459,1.4123 -0.13957,0.09388 -0.33939,0.205245 -0.51089,0.280224 -7.12525,3.106202 -10.707377,3.771425 -14.630715,7.519009 -7.632355,7.290448 -10.852108,16.428844 -11.071701,24.074925 -0.244572,8.515835 0.673879,17.722761 13.259487,23.533821 0.418416,0.242225 0.658251,0.322727 0.839506,0.859604 0.168041,0.447007 0.03549,0.278029 0.245207,0.97798 0.112974,0.377063 0.362142,0.74499 0.498537,0.927988 0.410329,0.550528 1.381809,1.107548 2.439759,1.351582 m 14.2875,-62.706249 c 2.25322,0.6172 2.35159,1.194044 2.76745,2.37189 0.0599,0.251858 0.10717,0.503711 0.10038,0.969081 0.0494,0.676829 0.26794,1.276626 0.58202,1.846722 0.0851,0.145077 0.21698,0.332013 0.33907,0.473887 5.07629,5.886333 8.01665,8.03771 9.92923,13.115013 3.72069,9.877246 2.66377,19.508447 -0.45068,26.494933 -3.46872,7.78121 -8.28505,15.68146 -22.14578,15.466702 -0.48205,0.03705 -0.73309,0.0057 -1.12903,0.411072 -0.34511,0.330086 -0.15244,0.23521 -0.64468,0.775219 -0.26517,0.290903 -0.64913,0.51457 -0.85134,0.620417 -0.60832,0.318428 -1.72522,0.39961 -2.78446,0.161241"
         id="path4817"
         transform="rotate(8.4393202,108.65951,54.391471)" />
      <path
         style="fill:#2c9910;fill-opacity:1;stroke-width:10.2619;stroke-linejoin:round"
         d="m 121.44193,22.729511 c -3.67249,13.012371 -18.5275,15.491432 -29.389592,9.901218 4.114031,-10.10153 18.199772,-16.443388 29.389592,-9.901218 z"
         id="path7526" />
    </g>
  </g>
</svg>
