<?xml version="1.0" encoding="UTF-8" standalone="no"?>
<!-- Created with Inkscape (http://www.inkscape.org/) -->

<svg
   width="64"
   height="64"
   viewBox="0 0 16.933333 16.933334"
   version="1.1"
   id="svg5"
   xmlns="http://www.w3.org/2000/svg"
   xmlns:svg="http://www.w3.org/2000/svg">
  <defs
     id="defs2">
    <mask
       maskUnits="userSpaceOnUse"
       id="mask1940">
      <path
         id="path1942"
         style="fill:#ffffff;fill-opacity:1;stroke-width:0.710909;stroke-linecap:round;stroke-linejoin:round"
         d="m 100.71141,110.15313 c 14.55998,0 26.28156,11.72157 26.28156,26.28156 v 17.56791 c 0,14.55998 -11.72158,26.28156 -26.28156,26.28156 -14.559986,0 -26.281562,-11.72158 -26.281562,-26.28156 v -17.56791 c 0,-14.55999 11.721576,-26.28156 26.281562,-26.28156 z" />
    </mask>
    <mask
       maskUnits="userSpaceOnUse"
       id="mask1944">
      <path
         id="path1946"
         style="fill:#ffffff;fill-opacity:1;stroke-width:0.710909;stroke-linecap:round;stroke-linejoin:round"
         d="m -82.805598,100.19694 c 0,14.55998 -11.721579,26.28156 -26.281562,26.28156 h -17.56791 c -14.55998,0 -26.28156,-11.72158 -26.28156,-26.28156 0,-14.559983 11.72158,-26.281559 26.28156,-26.281559 h 17.56791 c 14.559983,0 26.281562,11.721576 26.281562,26.281559 z" />
    </mask>
    <mask
       maskUnits="userSpaceOnUse"
       id="mask1948">
      <path
         id="path1950"
         style="fill:#ffffff;fill-opacity:1;stroke-width:0.710909;stroke-linecap:round;stroke-linejoin:round"
         d="m 100.19694,82.805598 c 14.55998,0 26.28156,11.721579 26.28156,26.281562 v 17.56791 c 0,14.55998 -11.72158,26.28156 -26.28156,26.28156 -14.559983,0 -26.281559,-11.72158 -26.281559,-26.28156 v -17.56791 c 0,-14.559983 11.721576,-26.281562 26.281559,-26.281562 z" />
    </mask>
  </defs>
  <g
     id="layer1">
    <g
       id="g9198"
       transform="matrix(0.16248538,0,0,0.16248538,-8.5942982,-7.9166337)">
      <path
         style="fill:#1aa908;fill-opacity:1;stroke-width:0.935548;stroke-linecap:round;stroke-linejoin:round"
         d="M 95.215314,89.866775 C 94.302692,83.464568 90.776843,77.428432 83.629765,72.656326 c 7.345099,-1.446647 10.9764,0.534865 13.923553,2.617137 -1.00844,-4.211255 -5.388658,-9.40292 -10.986944,-12.697974 3.972813,-0.623289 7.900188,-1.579841 13.839486,2.408387 1.00478,-1.329425 1.78555,-3.89238 1.64019,-6.734523 -0.19938,-3.898352 -1.11483,-6.219828 -1.83844,-9.527223 5.43067,1.444174 10.68484,9.325034 10.08978,15.832845 6.79355,-5.944067 14.18243,-2.856404 14.25397,-1.94146 -3.85483,2.50356 -9.55251,7.599012 -11.30357,12.188789 4.15076,-2.565668 11.10769,-2.60246 13.12244,-1.672576 -9.75488,5.52417 -10.66181,12.23901 -12.90376,16.277581 -1.80436,1.804367 -16.10298,-3.836887 -18.251156,0.459466 z"
         id="path1985" />
      <path
         id="rect903"
         style="fill:#fbb91b;fill-opacity:1;stroke-width:0.710909;stroke-linecap:round;stroke-linejoin:round"
         d="m 100.19694,82.805599 c 14.55998,0 26.28156,11.72158 26.28156,26.281561 v 17.56791 c 0,14.55998 -11.72158,26.28156 -26.28156,26.28156 -14.559985,0 -26.28156,-11.72158 -26.28156,-26.28156 v -17.56791 c 0,-14.559981 11.721575,-26.281561 26.28156,-26.281561 z"
         mask="url(#mask1948)"
         transform="translate(4.8030595)" />
      <rect
         style="fill:#d4912f;fill-opacity:1;stroke-width:0.635708;stroke-linecap:round;stroke-linejoin:round"
         id="rect1087-5-9"
         width="70.956596"
         height="3.2489281"
         x="-166.1506"
         y="-2.0439644"
         ry="0"
         transform="rotate(-90)"
         mask="url(#mask1944)" />
      <g
         id="g1710"
         transform="translate(4.288591,-27.347527)"
         mask="url(#mask1940)">
        <rect
           style="fill:#d4912f;fill-opacity:1;stroke-width:0.635708;stroke-linecap:round;stroke-linejoin:round"
           id="rect1087-1"
           width="70.956596"
           height="3.2489281"
           x="137.64291"
           y="29.689693"
           ry="0"
           transform="rotate(45)" />
        <rect
           style="fill:#d4912f;fill-opacity:1;stroke-width:0.635708;stroke-linecap:round;stroke-linejoin:round"
           id="rect1087-8"
           width="70.956596"
           height="3.2489281"
           x="138.51212"
           y="6.6158772"
           ry="0"
           transform="rotate(45)" />
        <rect
           style="fill:#d4912f;fill-opacity:1;stroke-width:0.635708;stroke-linecap:round;stroke-linejoin:round"
           id="rect1087-9"
           width="70.956596"
           height="3.2489281"
           x="138.79433"
           y="18.030149"
           ry="0"
           transform="rotate(45)" />
        <rect
           style="fill:#d4912f;fill-opacity:1;stroke-width:0.635708;stroke-linecap:round;stroke-linejoin:round"
           id="rect1087-85"
           width="70.956596"
           height="3.2489281"
           x="137.49899"
           y="41.205307"
           ry="0"
           transform="rotate(45)" />
        <rect
           style="fill:#d4912f;fill-opacity:1;stroke-width:0.635708;stroke-linecap:round;stroke-linejoin:round"
           id="rect1087-85-7"
           width="70.956596"
           height="3.2489281"
           x="135.00583"
           y="53.778404"
           ry="0"
           transform="rotate(45)" />
        <rect
           style="fill:#d4912f;fill-opacity:1;stroke-width:0.635708;stroke-linecap:round;stroke-linejoin:round"
           id="rect1087-1-8"
           width="70.956596"
           height="3.2489281"
           x="-67.221733"
           y="162.02863"
           ry="0"
           transform="rotate(-45)" />
        <rect
           style="fill:#d4912f;fill-opacity:1;stroke-width:0.635708;stroke-linecap:round;stroke-linejoin:round"
           id="rect1087-9-5"
           width="70.956596"
           height="3.2489281"
           x="-66.141647"
           y="149.27663"
           ry="0"
           transform="rotate(-45)" />
        <rect
           style="fill:#d4912f;fill-opacity:1;stroke-width:0.635708;stroke-linecap:round;stroke-linejoin:round"
           id="rect1087-85-3"
           width="70.956596"
           height="3.2489281"
           x="-66.305779"
           y="174.61263"
           ry="0"
           transform="rotate(-45)" />
        <rect
           style="fill:#d4912f;fill-opacity:1;stroke-width:0.635708;stroke-linecap:round;stroke-linejoin:round"
           id="rect1087-85-3-9"
           width="70.956596"
           height="3.2489281"
           x="-63.753498"
           y="186.77864"
           ry="0"
           transform="rotate(-45)" />
        <rect
           style="fill:#d4912f;fill-opacity:1;stroke-width:0.635708;stroke-linecap:round;stroke-linejoin:round"
           id="rect1087-85-3-9-2"
           width="70.956596"
           height="3.2489281"
           x="-63.855274"
           y="199.50012"
           ry="0"
           transform="rotate(-45)" />
      </g>
    </g>
  </g>
</svg>
