<?xml version="1.0" encoding="UTF-8" standalone="no"?>
<!-- Created with Inkscape (http://www.inkscape.org/) -->

<svg
   width="64"
   height="64"
   viewBox="0 0 16.933333 16.933334"
   version="1.1"
   id="svg1422"
   xmlns="http://www.w3.org/2000/svg"
   xmlns:svg="http://www.w3.org/2000/svg">
  <defs
     id="defs1419" />
  <g
     id="layer1">
    <g
       id="g23953"
       transform="matrix(0.18331924,0,0,0.18331924,-7.3415681,-11.849739)">
      <g
         id="g2840"
         transform="matrix(0.88951348,0,0,0.88951348,8.4510284,15.801596)" />
      <g
         id="g3076"
         transform="matrix(1.1034483,0,0,1.1034483,-8.87033,-16.242486)">
        <path
           style="opacity:1;fill:#70ae40;fill-opacity:1;stroke:none;stroke-width:2;stroke-linecap:round;stroke-linejoin:round;stroke-miterlimit:4;stroke-dasharray:none;stroke-opacity:1"
           d="m 83.604654,95.632405 c -5.876154,-2.818915 -5.99967,3.668704 -5.82254,6.284145 -1.922962,9.05682 14.637563,13.35835 20.018486,5.3788 1.616287,-2.42443 0.495637,-4.69154 0.675561,-7.780717 -1.802434,-10.461817 -9.030932,-3.176321 -13.680882,-4.57676"
           id="path19422" />
        <path
           style="opacity:1;fill:#70ae40;fill-opacity:1;stroke:none;stroke-width:2.60928;stroke-linecap:round;stroke-linejoin:round;stroke-miterlimit:4;stroke-dasharray:none;stroke-opacity:1"
           d="m 106.07254,76.850368 c -7.869083,3.324606 -11.546162,10.738226 -14.416791,25.899542 1.210909,0.97127 3.096274,3.27575 4.169457,2.33856 8.163914,-7.129373 14.017954,-11.027365 16.254814,-20.688533 0.74066,-7.297378 -0.47661,-9.53167 -6.00748,-7.549569 z"
           id="path11734"
           transform="matrix(0.88951348,0,0,0.88951348,8.4510287,15.801596)" />
        <path
           style="fill:#70ae40;fill-opacity:1;stroke:none;stroke-width:2.60928;stroke-linecap:round;stroke-linejoin:round;stroke-miterlimit:4;stroke-dasharray:none;stroke-opacity:1"
           d="m 71.836044,76.070129 c 7.86909,3.324606 11.54617,10.738225 14.4168,25.899541 -1.21091,0.97127 -3.09628,3.27575 -4.16946,2.33856 -8.16392,-7.129373 -14.01796,-11.027365 -16.25482,-20.688533 -0.74066,-7.297378 0.47661,-9.53167 6.00748,-7.549568 z"
           id="path11734-0"
           transform="matrix(0.88951348,0,0,0.88951348,8.4510287,15.801596)" />
        <path
           style="fill:#70ae40;fill-opacity:1;stroke:none;stroke-width:2.84168;stroke-linecap:round;stroke-linejoin:round;stroke-miterlimit:4;stroke-dasharray:none;stroke-opacity:1"
           d="m 95.701031,73.75233 c 2.422773,10.230018 0.171343,26.77684 -9.448187,28.21734 -8.517138,-3.433045 -6.246847,-26.919454 -0.988677,-33.932199 4.622112,-7.063229 8.509448,-2.113217 10.436864,5.714859 z"
           id="path11734-5"
           transform="matrix(0.88951348,0,0,0.88951348,8.4510287,15.801596)" />
        <path
           style="opacity:1;fill:#db5983;fill-opacity:1;stroke-width:3;stroke-linecap:round;stroke-linejoin:round;stroke-miterlimit:4;stroke-dasharray:none"
           d="m 87.510829,100.51854 c 15.339311,0 24.674331,9.11044 24.674331,20.61295 -0.59516,15.02871 -11.81092,20.35441 -21.152978,23.46987 -1.78343,0.70442 -2.379605,1.38708 -3.757767,2.81321 -5.004175,5.30026 -9.556399,4.8626 -16.934331,9.5112 -0.220266,0.12958 -0.634291,0.17072 -0.469397,-0.3239 1.579977,-4.93166 7.521918,-4.24105 6.125292,-10.85868 -0.411095,-1.50734 -0.758782,-1.84501 -2.044323,-2.75852 -1.961498,-1.25565 -3.799577,-2.08789 -5.897459,-3.93381 -4.483484,-4.44233 -7.866427,-10.2834 -7.863913,-17.1081 0,-14.53145 10.986262,-21.42422 27.320545,-21.42422 z"
           id="path1995" />
      </g>
    </g>
  </g>
</svg>
