<?xml version="1.0" encoding="UTF-8" standalone="no"?>
<!-- Created with Inkscape (http://www.inkscape.org/) -->

<svg
   width="64"
   height="64"
   viewBox="0 0 16.933333 16.933334"
   version="1.1"
   id="svg8813"
   xmlns="http://www.w3.org/2000/svg"
   xmlns:svg="http://www.w3.org/2000/svg">
  <defs
     id="defs8810" />
  <g
     id="layer1">
    <g
       id="g19046"
       transform="matrix(0.16277315,0,0,0.16277315,-8.6245141,-11.486496)">
      <ellipse
         style="fill:#f1300c;fill-opacity:1;stroke-width:1.6;stroke-linecap:round;stroke-linejoin:round"
         id="path8896"
         cx="105"
         cy="130.48886"
         rx="51.460396"
         ry="44.10891" />
      <path
         style="fill:#52b255;fill-opacity:1;stroke-width:2.16218;stroke-linecap:round;stroke-linejoin:round"
         d="m 106.22345,84.638065 c -4.32283,-6.861961 -17.225311,-12.832257 -29.403888,-6.917876 -0.781302,0.414283 -0.717973,0.740337 -0.320753,1.095115 5.591307,3.862726 9.72751,7.419551 16.223825,7.936796 -8.800916,0.189163 -15.684786,4.526255 -17.803839,11.199006 -0.07503,0.321242 -0.06385,0.606242 0.304763,0.683822 8.148638,1.050136 14.378574,1.085463 22.370969,-5.220273 0.220303,7.152225 1.398882,9.937215 6.133083,17.526035 0.21049,0.29509 0.33738,0.32627 0.60539,0.044 6.30484,-7.41133 7.60644,-10.92897 8.54011,-18.038697 6.1115,6.778338 12.41123,7.613147 20.13628,7.119397 0.26465,-0.01 0.44231,-0.09206 0.34234,-0.326164 -2.24131,-4.646583 -6.8604,-9.711401 -14.51688,-10.744872 2.41154,-0.41176 11.82886,-2.913295 14.25123,-5.692807 0.22533,-0.289155 0.28969,-0.515316 -0.10627,-0.676618 -5.58199,-1.750226 -13.52664,-7.052847 -26.19088,2.018001 -0.26337,0.108233 -0.35486,0.105022 -0.56595,-0.0048 z"
         id="path9029" />
      <path
         style="color:#000000;fill:#52b255;stroke-linejoin:round;-inkscape-stroke:none"
         d="m 108.03343,71.192224 c -2.0998,3.819468 -4.79079,11.098923 -5.08421,16.171057 l 5.78906,0.335938 c 0.13667,-2.362453 3.28782,-11.423191 4.50716,-13.805896 0.30561,-0.542915 0.27323,-0.678359 -0.24236,-0.954836 l -3.85318,-2.213348 c -0.63165,-0.317538 -0.78105,-0.152098 -1.11647,0.467085 z"
         id="path13542" />
    </g>
  </g>
</svg>
