<?xml version="1.0" encoding="UTF-8" standalone="no"?>
<!-- Created with Inkscape (http://www.inkscape.org/) -->

<svg
   width="64"
   height="64"
   viewBox="0 0 16.933332 16.933333"
   version="1.1"
   id="svg5"
   xmlns="http://www.w3.org/2000/svg"
   xmlns:svg="http://www.w3.org/2000/svg">
  <defs
     id="defs2" />
  <g
     id="layer1"
     transform="translate(-57.008666,-123.41306)">
    <g
       id="g949"
       transform="matrix(0.14351337,0,0,0.14351337,50.406429,109.93497)">
      <path
         style="fill:#4ba563;fill-opacity:1;stroke-width:3.96875;stroke-linecap:round;stroke-linejoin:round"
         id="path846-4"
         d="m 163.99567,123.41306 a 58.995667,58.995667 0 0 1 -29.49784,51.09175 58.995667,58.995667 0 0 1 -58.995665,0 58.995667,58.995667 0 0 1 -29.497832,-51.09175" />
      <path
         style="fill:#d31925;fill-opacity:1;stroke-width:3.96875;stroke-linecap:round;stroke-linejoin:round"
         id="path846"
         d="m 158.11448,123.41306 a 53.114479,53.114479 0 0 1 -26.55724,45.99849 53.114479,53.114479 0 0 1 -53.114481,0 53.114479,53.114479 0 0 1 -26.557238,-45.99849" />
      <g
         id="layer1-1"
         transform="translate(57.744086,-124.7041)"
         style="fill:#000000;fill-opacity:1">
        <path
           id="path5862"
           style="opacity:1;stroke-width:0.490409;stroke-linecap:round;stroke-linejoin:round;paint-order:markers stroke fill"
           d="m 396.83789,596.27539 c -3.20256,0.002 -9.60623,11.89547 -11.23437,19.07227 a 11.631309,11.631309 0 0 0 -0.35743,2.21289 c -0.0191,0.24755 -0.0287,0.48378 -0.0273,0.70703 a 11.631309,11.631309 0 0 0 0,0.008 11.631309,11.631309 0 0 0 0,0.004 c 3e-5,0.004 -4e-5,0.008 0,0.0117 10e-4,0.1249 0.006,0.24472 0.0137,0.36132 a 11.631309,11.631309 0 0 0 11.61914,11.25391 11.631309,11.631309 0 0 0 11.61914,-11.32031 11.631309,11.631309 0 0 0 0,-0.002 c 1.8e-4,-0.003 -1.7e-4,-0.007 0,-0.01 a 11.631309,11.631309 0 0 0 0.0117,-0.29883 11.631309,11.631309 0 0 0 -0.002,-0.0742 c -3.7e-4,-0.20091 -0.009,-0.41065 -0.0254,-0.63086 a 11.631309,11.631309 0 0 0 -0.36524,-2.26367 c -1.64543,-7.17711 -8.05338,-19.03167 -11.25195,-19.0293 z"
           transform="matrix(0.26458333,0,0,0.26458333,-57.744084,126.82078)" />
      </g>
      <g
         id="layer1-1-5"
         transform="rotate(-75,-8.2876372,147.15616)"
         style="fill:#000000;fill-opacity:1">
        <path
           id="path5862-1"
           style="opacity:1;stroke-width:0.490409;stroke-linecap:round;stroke-linejoin:round;paint-order:markers stroke fill"
           d="m 396.83789,596.27539 c -3.20256,0.002 -9.60623,11.89547 -11.23437,19.07227 a 11.631309,11.631309 0 0 0 -0.35743,2.21289 c -0.0191,0.24755 -0.0287,0.48378 -0.0273,0.70703 a 11.631309,11.631309 0 0 0 0,0.008 11.631309,11.631309 0 0 0 0,0.004 c 3e-5,0.004 -4e-5,0.008 0,0.0117 10e-4,0.1249 0.006,0.24472 0.0137,0.36132 a 11.631309,11.631309 0 0 0 11.61914,11.25391 11.631309,11.631309 0 0 0 11.61914,-11.32031 11.631309,11.631309 0 0 0 0,-0.002 c 1.8e-4,-0.003 -1.7e-4,-0.007 0,-0.01 a 11.631309,11.631309 0 0 0 0.0117,-0.29883 11.631309,11.631309 0 0 0 -0.002,-0.0742 c -3.7e-4,-0.20091 -0.009,-0.41065 -0.0254,-0.63086 a 11.631309,11.631309 0 0 0 -0.36524,-2.26367 c -1.64543,-7.17711 -8.05338,-19.03167 -11.25195,-19.0293 z"
           transform="matrix(0.26458333,0,0,0.26458333,-57.744084,126.82078)" />
      </g>
      <g
         id="layer1-1-5-2"
         transform="matrix(-0.25881905,-0.96592583,-0.96592583,0.25881905,358.30946,101.06425)"
         style="fill:#000000;fill-opacity:1">
        <path
           id="path5862-1-3"
           style="opacity:1;stroke-width:0.490409;stroke-linecap:round;stroke-linejoin:round;paint-order:markers stroke fill"
           d="m 396.83789,596.27539 c -3.20256,0.002 -9.60623,11.89547 -11.23437,19.07227 a 11.631309,11.631309 0 0 0 -0.35743,2.21289 c -0.0191,0.24755 -0.0287,0.48378 -0.0273,0.70703 a 11.631309,11.631309 0 0 0 0,0.008 11.631309,11.631309 0 0 0 0,0.004 c 3e-5,0.004 -4e-5,0.008 0,0.0117 10e-4,0.1249 0.006,0.24472 0.0137,0.36132 a 11.631309,11.631309 0 0 0 11.61914,11.25391 11.631309,11.631309 0 0 0 11.61914,-11.32031 11.631309,11.631309 0 0 0 0,-0.002 c 1.8e-4,-0.003 -1.7e-4,-0.007 0,-0.01 a 11.631309,11.631309 0 0 0 0.0117,-0.29883 11.631309,11.631309 0 0 0 -0.002,-0.0742 c -3.7e-4,-0.20091 -0.009,-0.41065 -0.0254,-0.63086 a 11.631309,11.631309 0 0 0 -0.36524,-2.26367 c -1.64543,-7.17711 -8.05338,-19.03167 -11.25195,-19.0293 z"
           transform="matrix(0.26458333,0,0,0.26458333,-57.744084,126.82078)" />
      </g>
      <g
         id="layer1-1-5-8"
         transform="rotate(-60,-34.00796,135.19779)"
         style="fill:#000000;fill-opacity:1">
        <path
           id="path5862-1-4"
           style="opacity:1;stroke-width:0.490409;stroke-linecap:round;stroke-linejoin:round;paint-order:markers stroke fill"
           d="m 396.83789,596.27539 c -3.20256,0.002 -9.60623,11.89547 -11.23437,19.07227 a 11.631309,11.631309 0 0 0 -0.35743,2.21289 c -0.0191,0.24755 -0.0287,0.48378 -0.0273,0.70703 a 11.631309,11.631309 0 0 0 0,0.008 11.631309,11.631309 0 0 0 0,0.004 c 3e-5,0.004 -4e-5,0.008 0,0.0117 10e-4,0.1249 0.006,0.24472 0.0137,0.36132 a 11.631309,11.631309 0 0 0 11.61914,11.25391 11.631309,11.631309 0 0 0 11.61914,-11.32031 11.631309,11.631309 0 0 0 0,-0.002 c 1.8e-4,-0.003 -1.7e-4,-0.007 0,-0.01 a 11.631309,11.631309 0 0 0 0.0117,-0.29883 11.631309,11.631309 0 0 0 -0.002,-0.0742 c -3.7e-4,-0.20091 -0.009,-0.41065 -0.0254,-0.63086 a 11.631309,11.631309 0 0 0 -0.36524,-2.26367 c -1.64543,-7.17711 -8.05338,-19.03167 -11.25195,-19.0293 z"
           transform="matrix(0.26458333,0,0,0.26458333,-57.744084,126.82078)" />
      </g>
      <g
         id="layer1-1-5-8-9"
         transform="matrix(-0.5,-0.8660254,-0.8660254,0.5,344.05956,38.147403)"
         style="fill:#000000;fill-opacity:1">
        <path
           id="path5862-1-4-8"
           style="opacity:1;stroke-width:0.490409;stroke-linecap:round;stroke-linejoin:round;paint-order:markers stroke fill"
           d="m 396.83789,596.27539 c -3.20256,0.002 -9.60623,11.89547 -11.23437,19.07227 a 11.631309,11.631309 0 0 0 -0.35743,2.21289 c -0.0191,0.24755 -0.0287,0.48378 -0.0273,0.70703 a 11.631309,11.631309 0 0 0 0,0.008 11.631309,11.631309 0 0 0 0,0.004 c 3e-5,0.004 -4e-5,0.008 0,0.0117 10e-4,0.1249 0.006,0.24472 0.0137,0.36132 a 11.631309,11.631309 0 0 0 11.61914,11.25391 11.631309,11.631309 0 0 0 11.61914,-11.32031 11.631309,11.631309 0 0 0 0,-0.002 c 1.8e-4,-0.003 -1.7e-4,-0.007 0,-0.01 a 11.631309,11.631309 0 0 0 0.0117,-0.29883 11.631309,11.631309 0 0 0 -0.002,-0.0742 c -3.7e-4,-0.20091 -0.009,-0.41065 -0.0254,-0.63086 a 11.631309,11.631309 0 0 0 -0.36524,-2.26367 c -1.64543,-7.17711 -8.05338,-19.03167 -11.25195,-19.0293 z"
           transform="matrix(0.26458333,0,0,0.26458333,-57.744084,126.82078)" />
      </g>
      <g
         id="layer1-1-5-8-2"
         transform="rotate(-45,-74.564539,118.21452)"
         style="fill:#000000;fill-opacity:1">
        <path
           id="path5862-1-4-6"
           style="opacity:1;stroke-width:0.490409;stroke-linecap:round;stroke-linejoin:round;paint-order:markers stroke fill"
           d="m 396.83789,596.27539 c -3.20256,0.002 -9.60623,11.89547 -11.23437,19.07227 a 11.631309,11.631309 0 0 0 -0.35743,2.21289 c -0.0191,0.24755 -0.0287,0.48378 -0.0273,0.70703 a 11.631309,11.631309 0 0 0 0,0.008 11.631309,11.631309 0 0 0 0,0.004 c 3e-5,0.004 -4e-5,0.008 0,0.0117 10e-4,0.1249 0.006,0.24472 0.0137,0.36132 a 11.631309,11.631309 0 0 0 11.61914,11.25391 11.631309,11.631309 0 0 0 11.61914,-11.32031 11.631309,11.631309 0 0 0 0,-0.002 c 1.8e-4,-0.003 -1.7e-4,-0.007 0,-0.01 a 11.631309,11.631309 0 0 0 0.0117,-0.29883 11.631309,11.631309 0 0 0 -0.002,-0.0742 c -3.7e-4,-0.20091 -0.009,-0.41065 -0.0254,-0.63086 a 11.631309,11.631309 0 0 0 -0.36524,-2.26367 c -1.64543,-7.17711 -8.05338,-19.03167 -11.25195,-19.0293 z"
           transform="matrix(0.26458333,0,0,0.26458333,-57.744084,126.82078)" />
      </g>
      <g
         id="layer1-1-5-8-2-0"
         transform="matrix(-0.70710678,-0.70710678,-0.70710678,0.70710678,315.51428,-18.100488)"
         style="fill:#000000;fill-opacity:1">
        <path
           id="path5862-1-4-6-7"
           style="opacity:1;stroke-width:0.490409;stroke-linecap:round;stroke-linejoin:round;paint-order:markers stroke fill"
           d="m 396.83789,596.27539 c -3.20256,0.002 -9.60623,11.89547 -11.23437,19.07227 a 11.631309,11.631309 0 0 0 -0.35743,2.21289 c -0.0191,0.24755 -0.0287,0.48378 -0.0273,0.70703 a 11.631309,11.631309 0 0 0 0,0.008 11.631309,11.631309 0 0 0 0,0.004 c 3e-5,0.004 -4e-5,0.008 0,0.0117 10e-4,0.1249 0.006,0.24472 0.0137,0.36132 a 11.631309,11.631309 0 0 0 11.61914,11.25391 11.631309,11.631309 0 0 0 11.61914,-11.32031 11.631309,11.631309 0 0 0 0,-0.002 c 1.8e-4,-0.003 -1.7e-4,-0.007 0,-0.01 a 11.631309,11.631309 0 0 0 0.0117,-0.29883 11.631309,11.631309 0 0 0 -0.002,-0.0742 c -3.7e-4,-0.20091 -0.009,-0.41065 -0.0254,-0.63086 a 11.631309,11.631309 0 0 0 -0.36524,-2.26367 c -1.64543,-7.17711 -8.05338,-19.03167 -11.25195,-19.0293 z"
           transform="matrix(0.26458333,0,0,0.26458333,-57.744084,126.82078)" />
      </g>
      <g
         id="layer1-1-5-8-2-3"
         transform="rotate(-30,-154.84376,88.798972)"
         style="fill:#000000;fill-opacity:1">
        <path
           id="path5862-1-4-6-5"
           style="opacity:1;stroke-width:0.490409;stroke-linecap:round;stroke-linejoin:round;paint-order:markers stroke fill"
           d="m 396.83789,596.27539 c -3.20256,0.002 -9.60623,11.89547 -11.23437,19.07227 a 11.631309,11.631309 0 0 0 -0.35743,2.21289 c -0.0191,0.24755 -0.0287,0.48378 -0.0273,0.70703 a 11.631309,11.631309 0 0 0 0,0.008 11.631309,11.631309 0 0 0 0,0.004 c 3e-5,0.004 -4e-5,0.008 0,0.0117 10e-4,0.1249 0.006,0.24472 0.0137,0.36132 a 11.631309,11.631309 0 0 0 11.61914,11.25391 11.631309,11.631309 0 0 0 11.61914,-11.32031 11.631309,11.631309 0 0 0 0,-0.002 c 1.8e-4,-0.003 -1.7e-4,-0.007 0,-0.01 a 11.631309,11.631309 0 0 0 0.0117,-0.29883 11.631309,11.631309 0 0 0 -0.002,-0.0742 c -3.7e-4,-0.20091 -0.009,-0.41065 -0.0254,-0.63086 a 11.631309,11.631309 0 0 0 -0.36524,-2.26367 c -1.64543,-7.17711 -8.05338,-19.03167 -11.25195,-19.0293 z"
           transform="matrix(0.26458333,0,0,0.26458333,-57.744084,126.82078)" />
      </g>
      <g
         id="layer1-1-5-8-2-3-0"
         transform="matrix(-0.8660254,-0.5,-0.5,0.8660254,275.10677,-65.524629)"
         style="fill:#000000;fill-opacity:1">
        <path
           id="path5862-1-4-6-5-3"
           style="opacity:1;stroke-width:0.490409;stroke-linecap:round;stroke-linejoin:round;paint-order:markers stroke fill"
           d="m 396.83789,596.27539 c -3.20256,0.002 -9.60623,11.89547 -11.23437,19.07227 a 11.631309,11.631309 0 0 0 -0.35743,2.21289 c -0.0191,0.24755 -0.0287,0.48378 -0.0273,0.70703 a 11.631309,11.631309 0 0 0 0,0.008 11.631309,11.631309 0 0 0 0,0.004 c 3e-5,0.004 -4e-5,0.008 0,0.0117 10e-4,0.1249 0.006,0.24472 0.0137,0.36132 a 11.631309,11.631309 0 0 0 11.61914,11.25391 11.631309,11.631309 0 0 0 11.61914,-11.32031 11.631309,11.631309 0 0 0 0,-0.002 c 1.8e-4,-0.003 -1.7e-4,-0.007 0,-0.01 a 11.631309,11.631309 0 0 0 0.0117,-0.29883 11.631309,11.631309 0 0 0 -0.002,-0.0742 c -3.7e-4,-0.20091 -0.009,-0.41065 -0.0254,-0.63086 a 11.631309,11.631309 0 0 0 -0.36524,-2.26367 c -1.64543,-7.17711 -8.05338,-19.03167 -11.25195,-19.0293 z"
           transform="matrix(0.26458333,0,0,0.26458333,-57.744084,126.82078)" />
      </g>
    </g>
  </g>
</svg>
